<svg xmlns="http://www.w3.org/2000/svg" xmlns:xlink="http://www.w3.org/1999/xlink" id="Layer_1" x="0" y="0" version="1.1" viewBox="0 0 495.2 495.2" xml:space="preserve" style="enable-background:new 0 0 495.2 495.2"><polygon style="fill:#d38c0d" points="325.6 224.4 495.2 126 325.6 28.4 156.8 127.6"/><g><polygon style="fill:#efbb67" points="170.4 224.4 338.4 126.8 170.4 28.4 0 126.8"/><polygon style="fill:#efbb67" points="416 368.4 248 466.8 80 368.4 80 172.4 248 74 416 172.4"/></g><polyline style="fill:#d38c0d" points="248 74 416 172.4 416 368.4 248 466.8"/><polygon style="fill:#efbb67" points="326.4 314.8 495.2 218 325.6 119.6 156 218"/><polygon style="fill:#d38c0d" points="170.4 316.4 339.2 217.2 170.4 119.6 0 218"/><polygon style="fill:#704a0e" points="248.8 270.8 416 172.4 248.8 74 78.4 172.4"/><polyline style="fill:#513307" points="248.8 270.8 416 172.4 248.8 74"/><polygon style="fill:#2d1c05" points="248.8 270.8 284.8 249.2 248.8 228.4 212.8 249.2"/><g><polygon style="fill:#0dd396" points="368 379.6 408 356.4 408 343.6 368 366.8"/><polygon style="fill:#0dd396" points="368 356.4 408 333.2 408 320.4 368 343.6"/><polygon style="fill:#0dd396" points="368 333.2 408 310 408 296.4 368 320.4"/></g></svg>